#!OML:ASF I:\Actors\actors\Patient Classification 2\Patient 1\Session 1\actor1.ASF
:FULLY-SPECIFIED
:DEGREES
344
root -0.409925 18.6566 6.21802 2.83037 -17.8627 -4.8632
lowerback 4.31074 -2.75651 -1.77427
upperback -1.87206 -3.74833 1.05476
thorax -4.16374 -1.80009 2.37137
lowerneck 9.67923 -21.8849 -18.0157
upperneck 0.156957 -31.8432 20.3954
head 4.65731 -16.2676 6.75067
rclavicle -6.55989e-014 1.19271e-015
rhumerus 16.5678 15.6899 -67.6862
rradius 92.653
rwrist 3.57258
rhand -33.9905 -33.1557
rfingers 7.12502
rthumb -7.17035 -63.0143
lclavicle -6.55989e-014 1.19271e-015
lhumerus -50.6916 0.783402 85.4093
lradius 46.0778
lwrist -0.674354
lhand -5.46616 -25.7618
lfingers 7.12502
lthumb 20.3455 3.19249
rfemur 0 0 0
rtibia 0
rfoot 0 0
rtoes 0
lfemur 0.293568 -2.21754 -12.5082
ltibia 21.2687
lfoot -31.3844 21.0191
ltoes -51.3642
345
root -0.399691 18.6563 6.22137 2.80246 -17.8149 -4.79697
lowerback 4.33692 -2.77091 -1.78087
upperback -1.8862 -3.76644 1.10788
thorax -4.18839 -1.8077 2.43322
lowerneck 9.78331 -21.8708 -18.1122
upperneck 0.0322849 -31.8341 20.4741
head 4.63089 -16.2717 6.79861
rclavicle 3.73839e-014 -4.77083e-015
rhumerus 18.3279 13.8171 -68.3536
rradius 93.4538
rwrist 3.4637
rhand -35.5189 -33.9101
rfingers 7.12502
rthumb -8.64556 -63.7131
lclavicle 3.73839e-014 -4.77083e-015
lhumerus -50.6305 0.653965 85.519
lradius 46.6621
lwrist -0.202394
lhand -5.77747 -25.8355
lfingers 7.12502
lthumb 20.0463 3.15035
rfemur 0 0 0
rtibia 0
rfoot 0 0
rtoes 0
lfemur 0.255979 -2.12509 -12.5904
ltibia 21.3144
lfoot -31.314 20.9243
ltoes -51.3814
346
root -0.391239 18.6571 6.22517 2.81964 -17.7204 -4.78035
lowerback 4.31856 -2.77418 -1.70929
upperback -1.91364 -3.76526 1.13655
thorax -4.20917 -1.80817 2.42281
lowerneck 9.86193 -21.9231 -18.1232
upperneck -0.0262833 -31.904 20.4435
head 4.60985 -16.3104 6.79113
rclavicle 7.11898e-015 -5.1684e-015
rhumerus 20.008 11.9321 -69.2864
rradius 94.1604
rwrist 3.45106
rhand -36.7471 -34.4034
rfingers 7.12502
rthumb -9.83063 -64.1539
lclavicle 7.11898e-015 -5.1684e-015
lhumerus -50.5889 0.415138 85.6315
lradius 47.1691
lwrist 0.287973
lhand -5.9518 -25.8678
lfingers 7.12502
lthumb 19.8787 3.13558
rfemur 0 0 0
rtibia 0
rfoot 0 0
rtoes 0
lfemur 0.167234 -2.03357 -12.6057
ltibia 21.381
lfoot -31.1891 20.8266
ltoes -51.4385
347
root -0.383201 18.6583 6.23005 2.87852 -17.5848 -4.76907
lowerback 4.27101 -2.7653 -1.58052
upperback -1.96969 -3.74559 1.12744
thorax -4.2502 -1.80106 2.33963
lowerneck 9.9172 -22.0337 -18.0248
upperneck -0.0155937 -32.04 20.306
head 4.58916 -16.3778 6.73023
rclavicle -5.18331e-014 -1.51076e-014
rhumerus 21.5691 10.0748 -70.4204
rradius 94.7333
rwrist 3.53648
rhand -37.5512 -34.7757
rfingers 7.12502
rthumb -10.6064 -64.488
lclavicle -5.18331e-014 -1.51076e-014
lhumerus -50.547 0.0598596 85.757
lradius 47.5379
lwrist 0.672509
lhand -6.14043 -26.0179
lfingers 7.12502
lthumb 19.6974 3.00411
rfemur 0 0 0
rtibia 0
rfoot 0 0
rtoes 0
lfemur 0.0273236 -2.02101 -12.6224
ltibia 21.4611
lfoot -31.1111 20.7829
ltoes -51.5148
348
root -0.375892 18.6594 6.23475 2.91683 -17.4122 -4.73246
lowerback 4.23096 -2.74369 -1.45129
upperback -2.00433 -3.71014 1.08628
thorax -4.27598 -1.78701 2.22162
lowerneck 9.94854 -22.148 -17.8962
upperneck -0.0332294 -32.1825 20.2783
head 4.57987 -16.4491 6.6919
rclavicle 3.02898e-014 1.98785e-015
rhumerus 22.6559 8.3169 -71.7283
rradius 95.3581
rwrist 3.8241
rhand -38.5788 -35.3313
rfingers 7.12502
rthumb -11.5975 -64.9904
lclavicle 3.02898e-014 1.98785e-015
lhumerus -50.4269 -0.332004 85.8867
lradius 47.8161
lwrist 0.908963
lhand -6.31542 -26.1256
lfingers 7.12502
lthumb 19.5291 2.91358
rfemur 0 0 0
rtibia 0
rfoot 0 0
rtoes 0
lfemur -0.105241 -2.13306 -12.6809
ltibia 21.5468
lfoot -31.0923 20.7859
ltoes -51.575
349
root -0.369692 18.6594 6.23872 2.87569 -17.2075 -4.69565
lowerback 4.25798 -2.73278 -1.33185
upperback -1.99915 -3.69013 1.04476
thorax -4.2969 -1.78068 2.11223
lowerneck 9.9392 -22.271 -17.7717
upperneck -0.075199 -32.3345 20.3108
head 4.58246 -16.5238 6.66275
rclavicle 8.06445e-014 -1.59028e-015
rhumerus 23.2992 6.78476 -73.0701
rradius 96.0099
rwrist 4.11117
rhand -39.4758 -35.5702
rfingers 7.12502
rthumb -12.4624 -65.1787
lclavicle 8.06445e-014 -1.59028e-015
lhumerus -50.2929 -0.703809 86.0221
lradius 48.0765
lwrist 1.06339
lhand -6.32604 -26.1151
lfingers 7.12502
lthumb 19.5189 2.92512
rfemur 0 0 0
rtibia 0
rfoot 0 0
rtoes 0
lfemur -0.159304 -2.23457 -12.728
ltibia 21.6285
lfoot -31.0081 20.759
ltoes -51.7207
350
root -0.365391 18.6585 6.24293 2.80792 -17.03 -4.69042
lowerback 4.31409 -2.73538 -1.23767
upperback -1.99996 -3.68797 1.05368
thorax -4.33486 -1.78155 2.07211
lowerneck 9.99703 -22.3341 -17.7974
upperneck -0.141925 -32.4315 20.4074
head 4.59252 -16.5763 6.68011
rclavicle 7.64948e-014 -3.18055e-015
rhumerus 24.655 5.64696 -74.0922
rradius 95.838
rwrist 4.21903
rhand -40.2319 -35.9403
rfingers 7.12502
rthumb -13.1913 -65.5029
lclavicle 7.64948e-014 -3.18055e-015
lhumerus -50.2671 -0.986245 86.2008
lradius 48.3631
lwrist 1.24083
lhand -6.19403 -26.0693
lfingers 7.12502
lthumb 19.6458 2.95806
rfemur 0 0 0
rtibia 0
rfoot 0 0
rtoes 0
lfemur -0.161325 -2.21346 -12.7172
ltibia 21.6929
lfoot -30.8744 20.6841
ltoes -51.883
351
root -0.361954 18.6588 6.24774 2.78123 -16.9149 -4.69467
lowerback 4.32951 -2.73527 -1.16809
upperback -2.03263 -3.68222 1.0929
thorax -4.37958 -1.77933 2.0755
lowerneck 10.0672 -22.3618 -17.8847
upperneck -0.161289 -32.4939 20.4852
head 4.61521 -16.6112 6.70278
rclavicle 5.28394e-014 1.59028e-015
rhumerus 26.6632 4.8979 -74.8142
rradius 94.8279
rwrist 4.38515
rhand -40.8837 -36.8114
rfingers 7.12502
rthumb -13.8195 -66.3324
lclavicle 5.28394e-014 1.59028e-015
lhumerus -50.285 -1.15449 86.3913
lradius 48.595
lwrist 1.40785
lhand -5.94416 -26.0187
lfingers 7.12502
lthumb 19.886 2.98386
rfemur 0 0 0
rtibia 0
rfoot 0 0
rtoes 0
lfemur -0.173289 -2.14695 -12.6945
ltibia 21.7263
lfoot -30.8044 20.5856
ltoes -51.8849
352
root -0.358739 18.6596 6.25299 2.77786 -16.8515 -4.71146
lowerback 4.30664 -2.73521 -1.06207
upperback -2.06357 -3.67477 1.11166
thorax -4.40446 -1.77796 2.03513
lowerneck 10.0228 -22.4459 -17.8331
upperneck -0.107784 -32.6042 20.447
head 4.64291 -16.6602 6.65945
rclavicle -1.22377e-014 6.36111e-015
rhumerus 28.0709 4.5064 -75.3607
rradius 93.8226
rwrist 4.67571
rhand -41.0493 -37.7774
rfingers 7.12502
rthumb -13.9791 -67.2874
lclavicle -1.22377e-014 6.36111e-015
lhumerus -50.2482 -1.25105 86.5172
lradius 48.6703
lwrist 1.42852
lhand -5.73845 -26.0154
lfingers 7.12502
lthumb 20.0838 2.96654
rfemur 0 0 0
rtibia 0
rfoot 0 0
rtoes 0
lfemur -0.173937 -2.12535 -12.6765
ltibia 21.7254
lfoot -30.7961 20.5305
ltoes -51.8302
353
root -0.357004 18.6586 6.25947 2.72959 -16.8589 -4.68074
lowerback 4.26426 -2.73397 -1.01798
upperback -2.0628 -3.67034 1.10598
thorax -4.38292 -1.77745 2.00193
lowerneck 10.0136 -22.4933 -17.806
upperneck -0.142303 -32.6707 20.5328
head 4.6574 -16.6935 6.666
rclavicle 4.8901e-014 -1.19271e-014
rhumerus 28.8996 4.4684 -75.5543
rradius 92.8232
rwrist 4.69019
rhand -40.5772 -38.3351
rfingers 7.12502
rthumb -13.5241 -67.876
lclavicle 4.8901e-014 -1.19271e-014
lhumerus -50.2537 -1.35724 86.6256
lradius 48.7337
lwrist 1.41041
lhand -5.71873 -25.9744
lfingers 7.12502
lthumb 20.1027 3.00553
rfemur 0 0 0
rtibia 0
rfoot 0 0
rtoes 0
lfemur -0.0965535 -2.14902 -12.7315
ltibia 21.7008
lfoot -30.842 20.5412
ltoes -51.794
354
root -0.355541 18.6566 6.26716 2.62959 -16.8922 -4.57606
lowerback 4.1965 -2.74006 -1.07653
upperback -2.03413 -3.68218 1.08929
thorax -4.31169 -1.78303 2.01322
lowerneck 10.1415 -22.4415 -17.8787
upperneck -0.322363 -32.6268 20.8186
head 4.63996 -16.6869 6.77596
rclavicle 1.4797e-014 1.98785e-015
rhumerus 29.6134 4.70288 -75.3454
rradius 91.6324
rwrist 4.05519
rhand -39.1181 -38.1733
rfingers 7.12502
rthumb -12.1175 -67.8024
lclavicle 1.4797e-014 1.98785e-015
lhumerus -50.3314 -1.46807 86.7572
lradius 48.8354
lwrist 1.49074
lhand -5.75568 -25.9195
lfingers 7.12502
lthumb 20.0672 3.06424
rfemur 0 0 0
rtibia 0
rfoot 0 0
rtoes 0
lfemur 0.0356621 -2.24238 -12.887
ltibia 21.6708
lfoot -30.9428 20.6047
ltoes -51.7191
355
root -0.352766 18.6557 6.27445 2.55509 -16.9304 -4.51112
lowerback 4.10965 -2.75698 -1.06938
upperback -2.01169 -3.70374 1.08789
thorax -4.23886 -1.79514 2.00352
lowerneck 10.2028 -22.4202 -17.8974
upperneck -0.450052 -32.6042 20.9759
head 4.61993 -16.6842 6.83515
rclavicle -1.05977e-014 1.31198e-014
rhumerus 30.1495 5.33921 -74.6637
rradius 90.1861
rwrist 3.76762
rhand -36.8172 -38.0378
rfingers 7.12502
rthumb -9.89831 -67.7851
lclavicle -1.05977e-014 1.31198e-014
lhumerus -50.4337 -1.5513 86.9107
lradius 48.882
lwrist 1.58575
lhand -5.79756 -25.9576
lfingers 7.12502
lthumb 20.0269 3.03027
rfemur 0 0 0
rtibia 0
rfoot 0 0
rtoes 0
lfemur 0.144546 -2.33796 -13.005
ltibia 21.6411
lfoot -31.0415 20.7006
ltoes -51.6357
